<?xml version="1.0" encoding="utf-8" standalone="no"?>
<!DOCTYPE svg PUBLIC "-//W3C//DTD SVG 1.1//EN" "http://www.w3.org/Graphics/SVG/1.1/DTD/svg11.dtd">
<svg width="3000px" height="3000px" version="1.1" xmlns="http://www.w3.org/2000/svg" xmlns:xlink="http://www.w3.org/1999/xlink">
<g id="bg">
<rect x="0" y="0" width="3000px" height="3000px" style="fill:rgb(255,255,255);"/>
</g>
<g id="ideograms">
<path d="M1500.000,425.000 A1075.000,1075.000 40.000 0,1 1685.330,441.096 L1693.950,391.845 A1125.000,1125.000 0.000 0,0 1500.000,375.000 Z" style="stroke-linecap:round;fill:rgb(116,196,118);fill-opacity:0.33;" />
<text x="1614.6" y="290.4" font-size="18.2px" font-family="CMUBright-Roman" style="text-anchor:start;fill:rgb(0,0,0);" transform="rotate(275.0,1614.6,290.4)" >scaffold<tspan baseline-shift="-40%" font-size="90%">5</tspan>62</text>
<line x1='1500.0' y1='375.0' x2='1500.0' y2='355.0' style="stroke-width:4.0;stroke:rgb(0,0,0);stroke-linecap:round;fill:none;" />
<text x="1506.5" y="345.0" font-size="18.2px" font-family="CMUBright-Roman" style="text-anchor:start;fill:rgb(0,0,0);" transform="rotate(270.0,1506.5,345.0)" >0</text>
<line x1='1591.3' y1='378.7' x2='1592.9' y2='358.8' style="stroke-width:4.0;stroke:rgb(0,0,0);stroke-linecap:round;fill:none;" />
<text x="1600.2" y="349.4" font-size="18.2px" font-family="CMUBright-Roman" style="text-anchor:start;fill:rgb(0,0,0);" transform="rotate(274.7,1600.2,349.4)" >50</text>
<line x1='1682.0' y1='389.8' x2='1685.2' y2='370.1' style="stroke-width:4.0;stroke:rgb(0,0,0);stroke-linecap:round;fill:none;" />
<text x="1693.2" y="361.3" font-size="18.2px" font-family="CMUBright-Roman" style="text-anchor:start;fill:rgb(0,0,0);" transform="rotate(279.3,1693.2,361.3)" >100</text>
<g id="highlighttrack_0">
<path d="M1500.555,425.000 A1075.000,1075.000 40.000 0,1 1525.606,425.305 L1526.797,375.319 A1125.000,1125.000 0.000 0,0 1500.581,375.000 Z" style="stroke-width:4.0;stroke:rgb(0,0,0);stroke-linecap:round;fill:rgb(251,106,74);" />
<path d="M1533.854,425.533 A1075.000,1075.000 40.000 0,1 1555.159,426.416 L1557.725,376.482 A1125.000,1125.000 0.000 0,0 1535.428,375.558 Z" style="stroke-width:4.0;stroke:rgb(0,0,0);stroke-linecap:round;fill:rgb(116,196,118);" />
<path d="M1558.379,426.586 A1075.000,1075.000 40.000 0,1 1608.538,430.493 L1613.587,380.749 A1125.000,1125.000 0.000 0,0 1561.094,376.660 Z" style="stroke-width:4.0;stroke:rgb(0,0,0);stroke-linecap:round;fill:rgb(116,196,118);" />
<path d="M1624.169,432.195 A1075.000,1075.000 40.000 0,1 1636.093,433.649 L1642.423,384.052 A1125.000,1125.000 0.000 0,0 1629.944,382.530 Z" style="stroke-width:4.0;stroke:rgb(0,0,0);stroke-linecap:round;fill:rgb(116,196,118);" />
</g>
<path d="M1746.027,453.532 A1075.000,1075.000 40.000 0,1 2504.632,1882.545 L2551.359,1900.338 A1125.000,1125.000 0.000 0,0 1757.471,404.859 Z" style="stroke-linecap:round;fill:rgb(116,196,118);fill-opacity:0.33;" />
<text x="2577.6" y="938.7" font-size="18.2px" font-family="CMUBright-Roman" style="text-anchor:start;fill:rgb(0,0,0);" transform="rotate(332.0,2577.6,938.7)" >scaffold<tspan baseline-shift="-40%" font-size="90%">2</tspan></text>
<line x1='1757.5' y1='404.9' x2='1762.0' y2='385.4' style="stroke-width:4.0;stroke:rgb(0,0,0);stroke-linecap:round;fill:none;" />
<text x="1770.7" y="377.2" font-size="18.2px" font-family="CMUBright-Roman" style="text-anchor:start;fill:rgb(0,0,0);" transform="rotate(283.2,1770.7,377.2)" >0</text>
<line x1='1845.5' y1='429.4' x2='1851.6' y2='410.3' style="stroke-width:4.0;stroke:rgb(0,0,0);stroke-linecap:round;fill:none;" />
<text x="1860.9" y="402.8" font-size="18.2px" font-family="CMUBright-Roman" style="text-anchor:start;fill:rgb(0,0,0);" transform="rotate(287.9,1860.9,402.8)" >50</text>
<line x1='1931.2' y1='460.9' x2='1938.9' y2='442.5' style="stroke-width:4.0;stroke:rgb(0,0,0);stroke-linecap:round;fill:none;" />
<text x="1948.7" y="435.7" font-size="18.2px" font-family="CMUBright-Roman" style="text-anchor:start;fill:rgb(0,0,0);" transform="rotate(292.5,1948.7,435.7)" >100</text>
<line x1='2014.1' y1='499.4' x2='2023.3' y2='481.6' style="stroke-width:4.0;stroke:rgb(0,0,0);stroke-linecap:round;fill:none;" />
<text x="2033.6" y="475.7" font-size="18.2px" font-family="CMUBright-Roman" style="text-anchor:start;fill:rgb(0,0,0);" transform="rotate(297.2,2033.6,475.7)" >150</text>
<line x1='2093.6' y1='544.4' x2='2104.2' y2='527.4' style="stroke-width:4.0;stroke:rgb(0,0,0);stroke-linecap:round;fill:none;" />
<text x="2115.0" y="522.3" font-size="18.2px" font-family="CMUBright-Roman" style="text-anchor:start;fill:rgb(0,0,0);" transform="rotate(301.8,2115.0,522.3)" >200</text>
<line x1='2169.2' y1='595.7' x2='2181.1' y2='579.6' style="stroke-width:4.0;stroke:rgb(0,0,0);stroke-linecap:round;fill:none;" />
<text x="2192.3" y="575.5" font-size="18.2px" font-family="CMUBright-Roman" style="text-anchor:start;fill:rgb(0,0,0);" transform="rotate(306.5,2192.3,575.5)" >250</text>
<line x1='2240.4' y1='653.0' x2='2253.6' y2='637.9' style="stroke-width:4.0;stroke:rgb(0,0,0);stroke-linecap:round;fill:none;" />
<text x="2265.0" y="634.7" font-size="18.2px" font-family="CMUBright-Roman" style="text-anchor:start;fill:rgb(0,0,0);" transform="rotate(311.2,2265.0,634.7)" >300</text>
<line x1='2306.7' y1='715.9' x2='2321.0' y2='701.9' style="stroke-width:4.0;stroke:rgb(0,0,0);stroke-linecap:round;fill:none;" />
<text x="2332.7" y="699.6" font-size="18.2px" font-family="CMUBright-Roman" style="text-anchor:start;fill:rgb(0,0,0);" transform="rotate(315.8,2332.7,699.6)" >350</text>
<line x1='2367.7' y1='783.9' x2='2383.1' y2='771.2' style="stroke-width:4.0;stroke:rgb(0,0,0);stroke-linecap:round;fill:none;" />
<text x="2394.9" y="769.8" font-size="18.2px" font-family="CMUBright-Roman" style="text-anchor:start;fill:rgb(0,0,0);" transform="rotate(320.5,2394.9,769.8)" >400</text>
<line x1='2422.9' y1='856.7' x2='2439.3' y2='845.2' style="stroke-width:4.0;stroke:rgb(0,0,0);stroke-linecap:round;fill:none;" />
<text x="2451.2" y="844.9" font-size="18.2px" font-family="CMUBright-Roman" style="text-anchor:start;fill:rgb(0,0,0);" transform="rotate(325.1,2451.2,844.9)" >450</text>
<line x1='2472.1' y1='933.7' x2='2489.3' y2='923.6' style="stroke-width:4.0;stroke:rgb(0,0,0);stroke-linecap:round;fill:none;" />
<text x="2501.2" y="924.2" font-size="18.2px" font-family="CMUBright-Roman" style="text-anchor:start;fill:rgb(0,0,0);" transform="rotate(329.8,2501.2,924.2)" >500</text>
<line x1='2514.8' y1='1014.4' x2='2532.9' y2='1005.8' style="stroke-width:4.0;stroke:rgb(0,0,0);stroke-linecap:round;fill:none;" />
<text x="2544.7" y="1007.4" font-size="18.2px" font-family="CMUBright-Roman" style="text-anchor:start;fill:rgb(0,0,0);" transform="rotate(334.4,2544.7,1007.4)" >550</text>
<line x1='2550.9' y1='1098.4' x2='2569.6' y2='1091.2' style="stroke-width:4.0;stroke:rgb(0,0,0);stroke-linecap:round;fill:none;" />
<text x="2581.2" y="1093.8" font-size="18.2px" font-family="CMUBright-Roman" style="text-anchor:start;fill:rgb(0,0,0);" transform="rotate(339.1,2581.2,1093.8)" >600</text>
<line x1='2580.0' y1='1185.0' x2='2599.2' y2='1179.4' style="stroke-width:4.0;stroke:rgb(0,0,0);stroke-linecap:round;fill:none;" />
<text x="2610.6" y="1182.8" font-size="18.2px" font-family="CMUBright-Roman" style="text-anchor:start;fill:rgb(0,0,0);" transform="rotate(343.7,2610.6,1182.8)" >650</text>
<line x1='2602.0' y1='1273.7' x2='2621.6' y2='1269.6' style="stroke-width:4.0;stroke:rgb(0,0,0);stroke-linecap:round;fill:none;" />
<text x="2632.7" y="1274.0" font-size="18.2px" font-family="CMUBright-Roman" style="text-anchor:start;fill:rgb(0,0,0);" transform="rotate(348.4,2632.7,1274.0)" >700</text>
<line x1='2616.7' y1='1363.8' x2='2636.6' y2='1361.4' style="stroke-width:4.0;stroke:rgb(0,0,0);stroke-linecap:round;fill:none;" />
<text x="2647.3" y="1366.7" font-size="18.2px" font-family="CMUBright-Roman" style="text-anchor:start;fill:rgb(0,0,0);" transform="rotate(353.0,2647.3,1366.7)" >750</text>
<line x1='2624.1' y1='1454.9' x2='2644.1' y2='1454.1' style="stroke-width:4.0;stroke:rgb(0,0,0);stroke-linecap:round;fill:none;" />
<text x="2654.3" y="1460.2" font-size="18.2px" font-family="CMUBright-Roman" style="text-anchor:start;fill:rgb(0,0,0);" transform="rotate(357.7,2654.3,1460.2)" >800</text>
<line x1='2624.0' y1='1546.3' x2='2644.0' y2='1547.1' style="stroke-width:4.0;stroke:rgb(0,0,0);stroke-linecap:round;fill:none;" />
<text x="2653.7" y="1554.0" font-size="18.2px" font-family="CMUBright-Roman" style="text-anchor:start;fill:rgb(0,0,0);" transform="rotate(2.4,2653.7,1554.0)" >850</text>
<line x1='2616.6' y1='1637.3' x2='2636.4' y2='1639.8' style="stroke-width:4.0;stroke:rgb(0,0,0);stroke-linecap:round;fill:none;" />
<text x="2645.6" y="1647.4" font-size="18.2px" font-family="CMUBright-Roman" style="text-anchor:start;fill:rgb(0,0,0);" transform="rotate(7.0,2645.6,1647.4)" >900</text>
<line x1='2601.8' y1='1727.5' x2='2621.3' y2='1731.5' style="stroke-width:4.0;stroke:rgb(0,0,0);stroke-linecap:round;fill:none;" />
<text x="2629.8" y="1739.9" font-size="18.2px" font-family="CMUBright-Roman" style="text-anchor:start;fill:rgb(0,0,0);" transform="rotate(11.7,2629.8,1739.9)" >950</text>
<line x1='2579.7' y1='1816.1' x2='2598.9' y2='1821.8' style="stroke-width:4.0;stroke:rgb(0,0,0);stroke-linecap:round;fill:none;" />
<text x="2606.6" y="1830.8" font-size="18.2px" font-family="CMUBright-Roman" style="text-anchor:start;fill:rgb(0,0,0);" transform="rotate(16.3,2606.6,1830.8)" >1000</text>
<g id="highlighttrack_0">
<path d="M2574.858,1482.523 A1075.000,1075.000 40.000 0,1 2574.798,1520.825 L2624.789,1521.794 A1125.000,1125.000 0.000 0,0 2624.851,1481.710 Z" style="stroke-width:4.0;stroke:rgb(0,0,0);stroke-linecap:round;fill:rgb(251,106,74);" />
<path d="M1927.208,513.532 A1075.000,1075.000 40.000 0,1 2058.664,581.567 L2084.649,538.849 A1125.000,1125.000 0.000 0,0 1947.078,467.650 Z" style="stroke-width:4.0;stroke:rgb(0,0,0);stroke-linecap:round;fill:rgb(251,106,74);" />
<path d="M2111.214,615.668 A1075.000,1075.000 40.000 0,1 2280.939,761.244 L2317.261,726.884 A1125.000,1125.000 0.000 0,0 2139.643,574.537 Z" style="stroke-width:4.0;stroke:rgb(0,0,0);stroke-linecap:round;fill:rgb(116,196,118);" />
<path d="M2280.969,761.276 A1075.000,1075.000 40.000 0,1 2564.932,1353.215 L2614.463,1346.388 A1125.000,1125.000 0.000 0,0 2317.293,726.917 Z" style="stroke-width:4.0;stroke:rgb(0,0,0);stroke-linecap:round;fill:rgb(116,196,118);" />
<path d="M2550.943,1726.150 A1075.000,1075.000 40.000 0,1 2504.750,1882.235 L2551.482,1900.013 A1125.000,1125.000 0.000 0,0 2599.824,1736.668 Z" style="stroke-width:4.0;stroke:rgb(0,0,0);stroke-linecap:round;fill:rgb(116,196,118);" />
<path d="M2574.794,1521.058 A1075.000,1075.000 40.000 0,1 2554.077,1711.058 L2603.104,1720.875 A1125.000,1125.000 0.000 0,0 2624.784,1522.037 Z" style="stroke-width:4.0;stroke:rgb(0,0,0);stroke-linecap:round;fill:rgb(116,196,118);" />
<path d="M2565.428,1356.862 A1075.000,1075.000 40.000 0,1 2574.177,1457.944 L2624.139,1455.988 A1125.000,1125.000 0.000 0,0 2614.983,1350.204 Z" style="stroke-width:4.0;stroke:rgb(0,0,0);stroke-linecap:round;fill:rgb(251,106,74);" />
<path d="M2086.066,598.806 A1075.000,1075.000 40.000 0,1 2106.931,612.723 L2135.160,571.455 A1125.000,1125.000 0.000 0,0 2113.325,556.890 Z" style="stroke-width:4.0;stroke:rgb(0,0,0);stroke-linecap:round;fill:rgb(116,196,118);" />
<path d="M1764.140,457.956 A1075.000,1075.000 40.000 0,1 1924.076,512.182 L1943.800,466.237 A1125.000,1125.000 0.000 0,0 1776.425,409.489 Z" style="stroke-width:4.0;stroke:rgb(0,0,0);stroke-linecap:round;fill:rgb(116,196,118);" />
<path d="M2061.187,583.106 A1075.000,1075.000 40.000 0,1 2078.887,594.177 L2105.811,552.046 A1125.000,1125.000 0.000 0,0 2087.289,540.460 Z" style="stroke-width:4.0;stroke:rgb(0,0,0);stroke-linecap:round;fill:rgb(251,106,74);" />
</g>
<path d="M2480.924,1939.788 A1075.000,1075.000 40.000 0,1 1759.259,2543.269 L1771.317,2591.793 A1125.000,1125.000 0.000 0,0 2526.548,1960.243 Z" style="stroke-linecap:round;fill:rgb(116,196,118);fill-opacity:0.33;" />
<text x="2272.1" y="2438.1" font-size="18.2px" font-family="CMUBright-Roman" style="text-anchor:start;fill:rgb(0,0,0);" transform="rotate(50.1,2272.1,2438.1)" >scaffold<tspan baseline-shift="-40%" font-size="90%">5</tspan>4</text>
<line x1='2526.5' y1='1960.2' x2='2544.8' y2='1968.4' style="stroke-width:4.0;stroke:rgb(0,0,0);stroke-linecap:round;fill:none;" />
<text x="2551.2" y="1978.4" font-size="18.2px" font-family="CMUBright-Roman" style="text-anchor:start;fill:rgb(0,0,0);" transform="rotate(24.1,2551.2,1978.4)" >0</text>
<line x1='2485.8' y1='2042.0' x2='2503.3' y2='2051.7' style="stroke-width:4.0;stroke:rgb(0,0,0);stroke-linecap:round;fill:none;" />
<text x="2509.0" y="2062.2" font-size="18.2px" font-family="CMUBright-Roman" style="text-anchor:start;fill:rgb(0,0,0);" transform="rotate(28.8,2509.0,2062.2)" >50</text>
<line x1='2438.6' y1='2120.2' x2='2455.3' y2='2131.3' style="stroke-width:4.0;stroke:rgb(0,0,0);stroke-linecap:round;fill:none;" />
<text x="2460.0" y="2142.2" font-size="18.2px" font-family="CMUBright-Roman" style="text-anchor:start;fill:rgb(0,0,0);" transform="rotate(33.5,2460.0,2142.2)" >100</text>
<line x1='2385.2' y1='2194.4' x2='2400.9' y2='2206.7' style="stroke-width:4.0;stroke:rgb(0,0,0);stroke-linecap:round;fill:none;" />
<text x="2404.7" y="2218.0" font-size="18.2px" font-family="CMUBright-Roman" style="text-anchor:start;fill:rgb(0,0,0);" transform="rotate(38.1,2404.7,2218.0)" >150</text>
<line x1='2325.9' y1='2263.9' x2='2340.6' y2='2277.5' style="stroke-width:4.0;stroke:rgb(0,0,0);stroke-linecap:round;fill:none;" />
<text x="2343.5" y="2289.0" font-size="18.2px" font-family="CMUBright-Roman" style="text-anchor:start;fill:rgb(0,0,0);" transform="rotate(42.8,2343.5,2289.0)" >200</text>
<line x1='2261.2' y1='2328.4' x2='2274.7' y2='2343.1' style="stroke-width:4.0;stroke:rgb(0,0,0);stroke-linecap:round;fill:none;" />
<text x="2276.7" y="2354.9" font-size="18.2px" font-family="CMUBright-Roman" style="text-anchor:start;fill:rgb(0,0,0);" transform="rotate(47.4,2276.7,2354.9)" >250</text>
<line x1='2191.4' y1='2387.4' x2='2203.7' y2='2403.2' style="stroke-width:4.0;stroke:rgb(0,0,0);stroke-linecap:round;fill:none;" />
<text x="2204.7" y="2415.1" font-size="18.2px" font-family="CMUBright-Roman" style="text-anchor:start;fill:rgb(0,0,0);" transform="rotate(52.1,2204.7,2415.1)" >300</text>
<line x1='2117.2' y1='2440.6' x2='2128.1' y2='2457.3' style="stroke-width:4.0;stroke:rgb(0,0,0);stroke-linecap:round;fill:none;" />
<text x="2128.2" y="2469.2" font-size="18.2px" font-family="CMUBright-Roman" style="text-anchor:start;fill:rgb(0,0,0);" transform="rotate(56.7,2128.2,2469.2)" >350</text>
<line x1='2038.8' y1='2487.6' x2='2048.4' y2='2505.1' style="stroke-width:4.0;stroke:rgb(0,0,0);stroke-linecap:round;fill:none;" />
<text x="2047.4" y="2517.0" font-size="18.2px" font-family="CMUBright-Roman" style="text-anchor:start;fill:rgb(0,0,0);" transform="rotate(61.4,2047.4,2517.0)" >400</text>
<line x1='1956.9' y1='2528.1' x2='1965.0' y2='2546.3' style="stroke-width:4.0;stroke:rgb(0,0,0);stroke-linecap:round;fill:none;" />
<text x="1963.1" y="2558.1" font-size="18.2px" font-family="CMUBright-Roman" style="text-anchor:start;fill:rgb(0,0,0);" transform="rotate(66.0,1963.1,2558.1)" >450</text>
<line x1='1871.9' y1='2561.7' x2='1878.6' y2='2580.6' style="stroke-width:4.0;stroke:rgb(0,0,0);stroke-linecap:round;fill:none;" />
<text x="1875.7" y="2592.2" font-size="18.2px" font-family="CMUBright-Roman" style="text-anchor:start;fill:rgb(0,0,0);" transform="rotate(70.7,1875.7,2592.2)" >500</text>
<line x1='1784.6' y1='2588.4' x2='1789.6' y2='2607.8' style="stroke-width:4.0;stroke:rgb(0,0,0);stroke-linecap:round;fill:none;" />
<text x="1785.9" y="2619.1" font-size="18.2px" font-family="CMUBright-Roman" style="text-anchor:start;fill:rgb(0,0,0);" transform="rotate(75.3,1785.9,2619.1)" >550</text>
<g id="highlighttrack_0">
<path d="M2471.199,1960.866 A1075.000,1075.000 40.000 0,1 2419.677,2056.614 L2462.453,2082.503 A1125.000,1125.000 0.000 0,0 2516.371,1982.302 Z" style="stroke-width:4.0;stroke:rgb(0,0,0);stroke-linecap:round;fill:rgb(116,196,118);" />
<path d="M2253.705,2266.520 A1075.000,1075.000 40.000 0,1 2244.085,2275.863 L2278.693,2311.949 A1125.000,1125.000 0.000 0,0 2288.761,2302.172 Z" style="stroke-width:4.0;stroke:rgb(0,0,0);stroke-linecap:round;fill:rgb(251,106,74);" />
<path d="M2098.608,2392.913 A1075.000,1075.000 40.000 0,1 2085.772,2401.386 L2113.017,2443.311 A1125.000,1125.000 0.000 0,0 2126.450,2434.444 Z" style="stroke-width:4.0;stroke:rgb(0,0,0);stroke-linecap:round;fill:rgb(116,196,118);" />
<path d="M2373.449,2126.667 A1075.000,1075.000 40.000 0,1 2290.888,2228.095 L2327.673,2261.960 A1125.000,1125.000 0.000 0,0 2414.075,2155.814 Z" style="stroke-width:4.0;stroke:rgb(0,0,0);stroke-linecap:round;fill:rgb(116,196,118);" />
<path d="M2273.885,2246.141 A1075.000,1075.000 40.000 0,1 2259.865,2260.414 L2295.208,2295.782 A1125.000,1125.000 0.000 0,0 2309.880,2280.845 Z" style="stroke-width:4.0;stroke:rgb(0,0,0);stroke-linecap:round;fill:rgb(116,196,118);" />
<path d="M2240.254,2279.519 A1075.000,1075.000 40.000 0,1 2213.478,2304.098 L2246.663,2341.498 A1125.000,1125.000 0.000 0,0 2274.684,2315.775 Z" style="stroke-width:4.0;stroke:rgb(0,0,0);stroke-linecap:round;fill:rgb(116,196,118);" />
<path d="M1937.863,2481.784 A1075.000,1075.000 40.000 0,1 1764.654,2541.913 L1776.963,2590.374 A1125.000,1125.000 0.000 0,0 1958.229,2527.449 Z" style="stroke-width:4.0;stroke:rgb(0,0,0);stroke-linecap:round;fill:rgb(116,196,118);" />
<path d="M2030.875,2434.771 A1075.000,1075.000 40.000 0,1 2020.975,2440.324 L2045.207,2484.060 A1125.000,1125.000 0.000 0,0 2055.567,2478.249 Z" style="stroke-width:4.0;stroke:rgb(0,0,0);stroke-linecap:round;fill:rgb(116,196,118);" />
<path d="M2211.252,2306.068 A1075.000,1075.000 40.000 0,1 2104.283,2389.082 L2132.389,2430.435 A1125.000,1125.000 0.000 0,0 2244.333,2343.560 Z" style="stroke-width:4.0;stroke:rgb(0,0,0);stroke-linecap:round;fill:rgb(116,196,118);" />
<path d="M2003.882,2449.593 A1075.000,1075.000 40.000 0,1 1946.484,2477.894 L1967.251,2523.378 A1125.000,1125.000 0.000 0,0 2027.319,2493.761 Z" style="stroke-width:4.0;stroke:rgb(0,0,0);stroke-linecap:round;fill:rgb(251,106,74);" />
<path d="M2084.947,2401.921 A1075.000,1075.000 40.000 0,1 2030.901,2434.756 L2055.594,2478.233 A1125.000,1125.000 0.000 0,0 2112.154,2443.871 Z" style="stroke-width:4.0;stroke:rgb(0,0,0);stroke-linecap:round;fill:rgb(116,196,118);" />
</g>
<path d="M1698.723,2556.472 A1075.000,1075.000 40.000 0,1 1435.437,2573.059 L1432.434,2622.969 A1125.000,1125.000 0.000 0,0 1707.966,2605.611 Z" style="stroke-linecap:round;fill:rgb(116,196,118);fill-opacity:0.33;" />
<text x="1566.9" y="2713.2" font-size="18.2px" font-family="CMUBright-Roman" style="text-anchor:start;fill:rgb(0,0,0);" transform="rotate(86.4,1566.9,2713.2)" >scaffold<tspan baseline-shift="-40%" font-size="90%">4</tspan>23</text>
<line x1='1708.0' y1='2605.6' x2='1711.7' y2='2625.3' style="stroke-width:4.0;stroke:rgb(0,0,0);stroke-linecap:round;fill:none;" />
<text x="1707.1" y="2636.3" font-size="18.2px" font-family="CMUBright-Roman" style="text-anchor:start;fill:rgb(0,0,0);" transform="rotate(79.3,1707.1,2636.3)" >0</text>
<line x1='1617.6' y1='2618.8' x2='1619.7' y2='2638.7' style="stroke-width:4.0;stroke:rgb(0,0,0);stroke-linecap:round;fill:none;" />
<text x="1614.2" y="2649.3" font-size="18.2px" font-family="CMUBright-Roman" style="text-anchor:start;fill:rgb(0,0,0);" transform="rotate(84.0,1614.2,2649.3)" >50</text>
<line x1='1526.4' y1='2624.7' x2='1526.9' y2='2644.7' style="stroke-width:4.0;stroke:rgb(0,0,0);stroke-linecap:round;fill:none;" />
<text x="1520.6" y="2654.8" font-size="18.2px" font-family="CMUBright-Roman" style="text-anchor:start;fill:rgb(0,0,0);" transform="rotate(88.7,1520.6,2654.8)" >100</text>
<line x1='1435.0' y1='2623.1' x2='1433.9' y2='2643.1' style="stroke-width:4.0;stroke:rgb(0,0,0);stroke-linecap:round;fill:none;" />
<text x="1439.8" y="2653.4" font-size="18.2px" font-family="CMUBright-Roman" style="text-anchor:end;fill:rgb(0,0,0);" transform="rotate(-86.7,1439.8,2653.4)" >150</text>
<g id="highlighttrack_0">
<path d="M1493.742,2574.982 A1075.000,1075.000 40.000 0,1 1454.089,2574.019 L1451.953,2623.974 A1125.000,1125.000 0.000 0,0 1493.451,2624.981 Z" style="stroke-width:4.0;stroke:rgb(0,0,0);stroke-linecap:round;fill:rgb(116,196,118);" />
<path d="M1686.004,2558.786 A1075.000,1075.000 40.000 0,1 1493.974,2574.983 L1493.694,2624.982 A1125.000,1125.000 0.000 0,0 1694.655,2608.032 Z" style="stroke-width:4.0;stroke:rgb(0,0,0);stroke-linecap:round;fill:rgb(251,106,74);" />
</g>
<path d="M1373.723,2567.558 A1075.000,1075.000 40.000 0,1 785.324,2303.034 L752.083,2340.384 A1125.000,1125.000 0.000 0,0 1367.850,2617.211 Z" style="stroke-linecap:round;fill:rgb(116,196,118);fill-opacity:0.33;" />
<text x="1010.5" y="2612.0" font-size="18.2px" font-family="CMUBright-Roman" style="text-anchor:end;fill:rgb(0,0,0);" transform="rotate(-65.8,1010.5,2612.0)" >scaffold<tspan baseline-shift="-40%" font-size="90%">1</tspan>33</text>
<line x1='1367.9' y1='2617.2' x2='1365.5' y2='2637.1' style="stroke-width:4.0;stroke:rgb(0,0,0);stroke-linecap:round;fill:none;" />
<text x="1370.8" y="2647.7" font-size="18.2px" font-family="CMUBright-Roman" style="text-anchor:end;fill:rgb(0,0,0);" transform="rotate(-83.3,1370.8,2647.7)" >0</text>
<line x1='1277.6' y1='2602.8' x2='1273.7' y2='2622.4' style="stroke-width:4.0;stroke:rgb(0,0,0);stroke-linecap:round;fill:none;" />
<text x="1278.1" y="2633.5" font-size="18.2px" font-family="CMUBright-Roman" style="text-anchor:end;fill:rgb(0,0,0);" transform="rotate(-78.6,1278.1,2633.5)" >50</text>
<line x1='1188.9' y1='2581.1' x2='1183.3' y2='2600.3' style="stroke-width:4.0;stroke:rgb(0,0,0);stroke-linecap:round;fill:none;" />
<text x="1186.8" y="2611.7" font-size="18.2px" font-family="CMUBright-Roman" style="text-anchor:end;fill:rgb(0,0,0);" transform="rotate(-73.9,1186.8,2611.7)" >100</text>
<line x1='1102.2' y1='2552.3' x2='1095.1' y2='2571.0' style="stroke-width:4.0;stroke:rgb(0,0,0);stroke-linecap:round;fill:none;" />
<text x="1097.6" y="2582.7" font-size="18.2px" font-family="CMUBright-Roman" style="text-anchor:end;fill:rgb(0,0,0);" transform="rotate(-69.3,1097.6,2582.7)" >150</text>
<line x1='1018.1' y1='2516.6' x2='1009.5' y2='2534.6' style="stroke-width:4.0;stroke:rgb(0,0,0);stroke-linecap:round;fill:none;" />
<text x="1011.1" y="2546.4" font-size="18.2px" font-family="CMUBright-Roman" style="text-anchor:end;fill:rgb(0,0,0);" transform="rotate(-64.6,1011.1,2546.4)" >200</text>
<line x1='937.2' y1='2474.1' x2='927.2' y2='2491.4' style="stroke-width:4.0;stroke:rgb(0,0,0);stroke-linecap:round;fill:none;" />
<text x="927.8" y="2503.3" font-size="18.2px" font-family="CMUBright-Roman" style="text-anchor:end;fill:rgb(0,0,0);" transform="rotate(-60.0,927.8,2503.3)" >250</text>
<line x1='860.0' y1='2425.2' x2='848.6' y2='2441.7' style="stroke-width:4.0;stroke:rgb(0,0,0);stroke-linecap:round;fill:none;" />
<text x="848.3" y="2453.6" font-size="18.2px" font-family="CMUBright-Roman" style="text-anchor:end;fill:rgb(0,0,0);" transform="rotate(-55.3,848.3,2453.6)" >300</text>
<line x1='787.0' y1='2370.2' x2='774.4' y2='2385.7' style="stroke-width:4.0;stroke:rgb(0,0,0);stroke-linecap:round;fill:none;" />
<text x="773.1" y="2397.5" font-size="18.2px" font-family="CMUBright-Roman" style="text-anchor:end;fill:rgb(0,0,0);" transform="rotate(-50.7,773.1,2397.5)" >350</text>
<g id="highlighttrack_0">
<path d="M1364.965,2566.485 A1075.000,1075.000 40.000 0,1 1206.532,2534.167 L1192.883,2582.268 A1125.000,1125.000 0.000 0,0 1358.684,2616.089 Z" style="stroke-width:4.0;stroke:rgb(0,0,0);stroke-linecap:round;fill:rgb(116,196,118);" />
<path d="M922.443,2406.671 A1075.000,1075.000 40.000 0,1 792.209,2309.109 L759.289,2346.742 A1125.000,1125.000 0.000 0,0 895.580,2448.842 Z" style="stroke-width:4.0;stroke:rgb(0,0,0);stroke-linecap:round;fill:rgb(116,196,118);" />
<path d="M1205.022,2533.737 A1075.000,1075.000 40.000 0,1 1189.698,2529.241 L1175.265,2577.113 A1125.000,1125.000 0.000 0,0 1191.302,2581.818 Z" style="stroke-width:4.0;stroke:rgb(0,0,0);stroke-linecap:round;fill:rgb(251,106,74);" />
<path d="M1188.134,2528.769 A1075.000,1075.000 40.000 0,1 933.831,2413.826 L907.497,2456.329 A1125.000,1125.000 0.000 0,0 1173.629,2576.618 Z" style="stroke-width:4.0;stroke:rgb(0,0,0);stroke-linecap:round;fill:rgb(116,196,118);" />
</g>
<path d="M740.247,2260.526 A1075.000,1075.000 40.000 0,1 435.782,1651.871 L386.283,1658.935 A1125.000,1125.000 0.000 0,0 704.909,2295.899 Z" style="stroke-linecap:round;fill:rgb(116,196,118);fill-opacity:0.33;" />
<text x="417.7" y="2052.0" font-size="18.2px" font-family="CMUBright-Roman" style="text-anchor:end;fill:rgb(0,0,0);" transform="rotate(-26.6,417.7,2052.0)" >scaffold<tspan baseline-shift="-40%" font-size="90%">1</tspan>19</text>
<line x1='704.9' y1='2295.9' x2='690.8' y2='2310.0' style="stroke-width:4.0;stroke:rgb(0,0,0);stroke-linecap:round;fill:none;" />
<text x="688.3" y="2321.7" font-size="18.2px" font-family="CMUBright-Roman" style="text-anchor:end;fill:rgb(0,0,0);" transform="rotate(-45.0,688.3,2321.7)" >0</text>
<line x1='642.9' y1='2228.8' x2='627.7' y2='2241.7' style="stroke-width:4.0;stroke:rgb(0,0,0);stroke-linecap:round;fill:none;" />
<text x="624.3" y="2253.1" font-size="18.2px" font-family="CMUBright-Roman" style="text-anchor:end;fill:rgb(0,0,0);" transform="rotate(-40.4,624.3,2253.1)" >50</text>
<line x1='586.6' y1='2156.8' x2='570.4' y2='2168.5' style="stroke-width:4.0;stroke:rgb(0,0,0);stroke-linecap:round;fill:none;" />
<text x="566.1" y="2179.6" font-size="18.2px" font-family="CMUBright-Roman" style="text-anchor:end;fill:rgb(0,0,0);" transform="rotate(-35.7,566.1,2179.6)" >100</text>
<line x1='536.4' y1='2080.5' x2='519.2' y2='2090.8' style="stroke-width:4.0;stroke:rgb(0,0,0);stroke-linecap:round;fill:none;" />
<text x="514.0" y="2101.6" font-size="18.2px" font-family="CMUBright-Roman" style="text-anchor:end;fill:rgb(0,0,0);" transform="rotate(-31.1,514.0,2101.6)" >150</text>
<line x1='492.4' y1='2000.4' x2='474.5' y2='2009.3' style="stroke-width:4.0;stroke:rgb(0,0,0);stroke-linecap:round;fill:none;" />
<text x="468.5" y="2019.6" font-size="18.2px" font-family="CMUBright-Roman" style="text-anchor:end;fill:rgb(0,0,0);" transform="rotate(-26.4,468.5,2019.6)" >200</text>
<line x1='455.1' y1='1917.0' x2='436.6' y2='1924.4' style="stroke-width:4.0;stroke:rgb(0,0,0);stroke-linecap:round;fill:none;" />
<text x="429.7" y="1934.1" font-size="18.2px" font-family="CMUBright-Roman" style="text-anchor:end;fill:rgb(0,0,0);" transform="rotate(-21.8,429.7,1934.1)" >250</text>
<line x1='424.7' y1='1830.8' x2='405.6' y2='1836.7' style="stroke-width:4.0;stroke:rgb(0,0,0);stroke-linecap:round;fill:none;" />
<text x="398.0" y="1845.9" font-size="18.2px" font-family="CMUBright-Roman" style="text-anchor:end;fill:rgb(0,0,0);" transform="rotate(-17.1,398.0,1845.9)" >300</text>
<line x1='401.4' y1='1742.5' x2='381.9' y2='1746.8' style="stroke-width:4.0;stroke:rgb(0,0,0);stroke-linecap:round;fill:none;" />
<text x="373.6" y="1755.3" font-size="18.2px" font-family="CMUBright-Roman" style="text-anchor:end;fill:rgb(0,0,0);" transform="rotate(-12.4,373.6,1755.3)" >350</text>
<g id="highlighttrack_0">
<path d="M740.211,2260.490 A1075.000,1075.000 40.000 0,1 436.417,1656.259 L386.948,1663.526 A1125.000,1125.000 0.000 0,0 704.872,2295.862 Z" style="stroke-width:4.0;stroke:rgb(0,0,0);stroke-linecap:round;fill:rgb(116,196,118);" />
</g>
<path d="M428.800,1590.307 A1075.000,1075.000 40.000 0,1 568.010,964.258 L524.662,939.340 A1125.000,1125.000 0.000 0,0 378.977,1594.508 Z" style="stroke-linecap:round;fill:rgb(116,196,118);fill-opacity:0.33;" />
<text x="311.9" y="1245.6" font-size="18.2px" font-family="CMUBright-Roman" style="text-anchor:end;fill:rgb(0,0,0);" transform="rotate(12.5,311.9,1245.6)" >scaffold<tspan baseline-shift="-40%" font-size="90%">1</tspan>37</text>
<line x1='379.0' y1='1594.5' x2='359.0' y2='1596.2' style="stroke-width:4.0;stroke:rgb(0,0,0);stroke-linecap:round;fill:none;" />
<text x="349.6" y="1603.5" font-size="18.2px" font-family="CMUBright-Roman" style="text-anchor:end;fill:rgb(0,0,0);" transform="rotate(-4.8,349.6,1603.5)" >0</text>
<line x1='375.0' y1='1503.2' x2='355.0' y2='1503.3' style="stroke-width:4.0;stroke:rgb(0,0,0);stroke-linecap:round;fill:none;" />
<text x="345.0" y="1509.8" font-size="18.2px" font-family="CMUBright-Roman" style="text-anchor:end;fill:rgb(0,0,0);" transform="rotate(-0.2,345.0,1509.8)" >50</text>
<line x1='378.5' y1='1411.9' x2='358.5' y2='1410.4' style="stroke-width:4.0;stroke:rgb(0,0,0);stroke-linecap:round;fill:none;" />
<text x="348.1" y="1416.1" font-size="18.2px" font-family="CMUBright-Roman" style="text-anchor:end;fill:rgb(0,0,0);" transform="rotate(4.5,348.1,1416.1)" >100</text>
<line x1='389.3' y1='1321.2' x2='369.6' y2='1318.0' style="stroke-width:4.0;stroke:rgb(0,0,0);stroke-linecap:round;fill:none;" />
<text x="358.7" y="1322.9" font-size="18.2px" font-family="CMUBright-Roman" style="text-anchor:end;fill:rgb(0,0,0);" transform="rotate(9.1,358.7,1322.9)" >150</text>
<line x1='407.5' y1='1231.7' x2='388.0' y2='1226.9' style="stroke-width:4.0;stroke:rgb(0,0,0);stroke-linecap:round;fill:none;" />
<text x="376.8" y="1230.8" font-size="18.2px" font-family="CMUBright-Roman" style="text-anchor:end;fill:rgb(0,0,0);" transform="rotate(13.8,376.8,1230.8)" >200</text>
<line x1='432.8' y1='1143.9' x2='413.9' y2='1137.6' style="stroke-width:4.0;stroke:rgb(0,0,0);stroke-linecap:round;fill:none;" />
<text x="402.4" y="1140.6" font-size="18.2px" font-family="CMUBright-Roman" style="text-anchor:end;fill:rgb(0,0,0);" transform="rotate(18.5,402.4,1140.6)" >250</text>
<line x1='465.3' y1='1058.5' x2='446.9' y2='1050.6' style="stroke-width:4.0;stroke:rgb(0,0,0);stroke-linecap:round;fill:none;" />
<text x="435.1" y="1052.7" font-size="18.2px" font-family="CMUBright-Roman" style="text-anchor:end;fill:rgb(0,0,0);" transform="rotate(23.1,435.1,1052.7)" >300</text>
<line x1='504.5' y1='976.0' x2='486.8' y2='966.6' style="stroke-width:4.0;stroke:rgb(0,0,0);stroke-linecap:round;fill:none;" />
<text x="474.9" y="967.7" font-size="18.2px" font-family="CMUBright-Roman" style="text-anchor:end;fill:rgb(0,0,0);" transform="rotate(27.8,474.9,967.7)" >350</text>
<g id="highlighttrack_0">
<path d="M456.347,1242.294 A1075.000,1075.000 40.000 0,1 465.324,1208.332 L417.199,1194.766 A1125.000,1125.000 0.000 0,0 407.805,1230.307 Z" style="stroke-width:4.0;stroke:rgb(0,0,0);stroke-linecap:round;fill:rgb(116,196,118);" />
<path d="M516.431,1066.160 A1075.000,1075.000 40.000 0,1 546.647,1003.269 L502.305,980.165 A1125.000,1125.000 0.000 0,0 470.684,1045.981 Z" style="stroke-width:4.0;stroke:rgb(0,0,0);stroke-linecap:round;fill:rgb(251,106,74);" />
<path d="M425.856,1542.880 A1075.000,1075.000 40.000 0,1 425.100,1514.662 L375.105,1515.344 A1125.000,1125.000 0.000 0,0 375.895,1544.874 Z" style="stroke-width:4.0;stroke:rgb(0,0,0);stroke-linecap:round;fill:rgb(116,196,118);" />
<path d="M478.330,1165.611 A1075.000,1075.000 40.000 0,1 516.426,1066.171 L470.679,1045.993 A1125.000,1125.000 0.000 0,0 430.811,1150.058 Z" style="stroke-width:4.0;stroke:rgb(0,0,0);stroke-linecap:round;fill:rgb(116,196,118);" />
<path d="M436.396,1343.886 A1075.000,1075.000 40.000 0,1 438.899,1327.696 L389.545,1319.681 A1125.000,1125.000 0.000 0,0 386.926,1336.625 Z" style="stroke-width:4.0;stroke:rgb(0,0,0);stroke-linecap:round;fill:rgb(116,196,118);" />
<path d="M425.053,1489.327 A1075.000,1075.000 40.000 0,1 425.920,1455.523 L375.963,1453.455 A1125.000,1125.000 0.000 0,0 375.055,1488.830 Z" style="stroke-width:4.0;stroke:rgb(0,0,0);stroke-linecap:round;fill:rgb(251,106,74);" />
<path d="M546.659,1003.245 A1075.000,1075.000 40.000 0,1 561.967,974.910 L518.338,950.487 A1125.000,1125.000 0.000 0,0 502.317,980.140 Z" style="stroke-width:4.0;stroke:rgb(0,0,0);stroke-linecap:round;fill:rgb(251,106,74);" />
<path d="M442.462,1307.026 A1075.000,1075.000 40.000 0,1 444.370,1296.850 L395.271,1287.401 A1125.000,1125.000 0.000 0,0 393.274,1298.050 Z" style="stroke-width:4.0;stroke:rgb(0,0,0);stroke-linecap:round;fill:rgb(116,196,118);" />
</g>
<path d="M600.423,911.454 A1075.000,1075.000 40.000 0,1 801.209,683.106 L768.707,645.111 A1125.000,1125.000 0.000 0,0 558.582,884.080 Z" style="stroke-linecap:round;fill:rgb(116,196,118);fill-opacity:0.33;" />
<text x="581.3" y="704.9" font-size="18.2px" font-family="CMUBright-Roman" style="text-anchor:end;fill:rgb(0,0,0);" transform="rotate(41.3,581.3,704.9)" >scaffold<tspan baseline-shift="-40%" font-size="90%">3</tspan>64</text>
<line x1='558.6' y1='884.1' x2='541.8' y2='873.1' style="stroke-width:4.0;stroke:rgb(0,0,0);stroke-linecap:round;fill:none;" />
<text x="529.9" y="873.1" font-size="18.2px" font-family="CMUBright-Roman" style="text-anchor:end;fill:rgb(0,0,0);" transform="rotate(33.2,529.9,873.1)" >0</text>
<line x1='611.7' y1='809.7' x2='595.9' y2='797.4' style="stroke-width:4.0;stroke:rgb(0,0,0);stroke-linecap:round;fill:none;" />
<text x="584.0" y="796.5" font-size="18.2px" font-family="CMUBright-Roman" style="text-anchor:end;fill:rgb(0,0,0);" transform="rotate(37.8,584.0,796.5)" >50</text>
<line x1='670.6' y1='739.9' x2='655.9' y2='726.4' style="stroke-width:4.0;stroke:rgb(0,0,0);stroke-linecap:round;fill:none;" />
<text x="644.1" y="724.4" font-size="18.2px" font-family="CMUBright-Roman" style="text-anchor:end;fill:rgb(0,0,0);" transform="rotate(42.5,644.1,724.4)" >100</text>
<line x1='735.0' y1='675.1' x2='721.4' y2='660.4' style="stroke-width:4.0;stroke:rgb(0,0,0);stroke-linecap:round;fill:none;" />
<text x="709.9" y="657.5" font-size="18.2px" font-family="CMUBright-Roman" style="text-anchor:end;fill:rgb(0,0,0);" transform="rotate(47.2,709.9,657.5)" >150</text>
<g id="highlighttrack_0">
<path d="M602.594,908.149 A1075.000,1075.000 40.000 0,1 756.740,723.347 L722.170,687.224 A1125.000,1125.000 0.000 0,0 560.854,880.621 Z" style="stroke-width:4.0;stroke:rgb(0,0,0);stroke-linecap:round;fill:rgb(116,196,118);" />
<path d="M757.223,722.885 A1075.000,1075.000 40.000 0,1 792.012,691.063 L759.083,653.439 A1125.000,1125.000 0.000 0,0 722.676,686.740 Z" style="stroke-width:4.0;stroke:rgb(0,0,0);stroke-linecap:round;fill:rgb(116,196,118);" />
</g>
<path d="M849.432,644.204 A1075.000,1075.000 40.000 0,1 1438.067,426.786 L1435.187,376.869 A1125.000,1125.000 0.000 0,0 819.173,604.400 Z" style="stroke-linecap:round;fill:rgb(116,196,118);fill-opacity:0.33;" />
<text x="1070.1" y="363.6" font-size="18.2px" font-family="CMUBright-Roman" style="text-anchor:end;fill:rgb(0,0,0);" transform="rotate(69.7,1070.1,363.6)" >scaffold<tspan baseline-shift="-40%" font-size="90%">1</tspan>47</text>
<line x1='819.2' y1='604.4' x2='807.1' y2='588.5' style="stroke-width:4.0;stroke:rgb(0,0,0);stroke-linecap:round;fill:none;" />
<text x="795.9" y="584.5" font-size="18.2px" font-family="CMUBright-Roman" style="text-anchor:end;fill:rgb(0,0,0);" transform="rotate(52.8,795.9,584.5)" >0</text>
<line x1='894.1' y1='552.1' x2='883.3' y2='535.3' style="stroke-width:4.0;stroke:rgb(0,0,0);stroke-linecap:round;fill:none;" />
<text x="872.5" y="530.3" font-size="18.2px" font-family="CMUBright-Roman" style="text-anchor:end;fill:rgb(0,0,0);" transform="rotate(57.4,872.5,530.3)" >50</text>
<line x1='973.0' y1='506.1' x2='963.6' y2='488.4' style="stroke-width:4.0;stroke:rgb(0,0,0);stroke-linecap:round;fill:none;" />
<text x="953.2" y="482.6" font-size="18.2px" font-family="CMUBright-Roman" style="text-anchor:end;fill:rgb(0,0,0);" transform="rotate(62.1,953.2,482.6)" >100</text>
<line x1='1055.4' y1='466.6' x2='1047.5' y2='448.2' style="stroke-width:4.0;stroke:rgb(0,0,0);stroke-linecap:round;fill:none;" />
<text x="1037.6" y="441.6" font-size="18.2px" font-family="CMUBright-Roman" style="text-anchor:end;fill:rgb(0,0,0);" transform="rotate(66.7,1037.6,441.6)" >150</text>
<line x1='1140.7' y1='433.9' x2='1134.3' y2='415.0' style="stroke-width:4.0;stroke:rgb(0,0,0);stroke-linecap:round;fill:none;" />
<text x="1125.0" y="407.6" font-size="18.2px" font-family="CMUBright-Roman" style="text-anchor:end;fill:rgb(0,0,0);" transform="rotate(71.4,1125.0,407.6)" >200</text>
<line x1='1228.4' y1='408.3' x2='1223.6' y2='388.9' style="stroke-width:4.0;stroke:rgb(0,0,0);stroke-linecap:round;fill:none;" />
<text x="1214.9" y="380.7" font-size="18.2px" font-family="CMUBright-Roman" style="text-anchor:end;fill:rgb(0,0,0);" transform="rotate(76.0,1214.9,380.7)" >250</text>
<line x1='1317.9' y1='389.8' x2='1314.7' y2='370.1' style="stroke-width:4.0;stroke:rgb(0,0,0);stroke-linecap:round;fill:none;" />
<text x="1306.6" y="361.3" font-size="18.2px" font-family="CMUBright-Roman" style="text-anchor:end;fill:rgb(0,0,0);" transform="rotate(80.7,1306.6,361.3)" >300</text>
<line x1='1408.6' y1='378.7' x2='1407.0' y2='358.8' style="stroke-width:4.0;stroke:rgb(0,0,0);stroke-linecap:round;fill:none;" />
<text x="1399.7" y="349.4" font-size="18.2px" font-family="CMUBright-Roman" style="text-anchor:end;fill:rgb(0,0,0);" transform="rotate(85.3,1399.7,349.4)" >350</text>
<g id="highlighttrack_0">
<path d="M1058.585,519.807 A1075.000,1075.000 40.000 0,1 1068.139,515.560 L1048.053,469.773 A1125.000,1125.000 0.000 0,0 1038.055,474.217 Z" style="stroke-width:4.0;stroke:rgb(0,0,0);stroke-linecap:round;fill:rgb(251,106,74);" />
<path d="M1291.616,445.391 A1075.000,1075.000 40.000 0,1 1438.067,426.786 L1435.187,376.869 A1125.000,1125.000 0.000 0,0 1281.924,396.339 Z" style="stroke-width:4.0;stroke:rgb(0,0,0);stroke-linecap:round;fill:rgb(116,196,118);" />
<path d="M1121.011,494.022 A1075.000,1075.000 40.000 0,1 1279.895,447.774 L1269.658,398.834 A1125.000,1125.000 0.000 0,0 1103.384,447.232 Z" style="stroke-width:4.0;stroke:rgb(0,0,0);stroke-linecap:round;fill:rgb(251,106,74);" />
<path d="M1033.288,531.597 A1075.000,1075.000 40.000 0,1 1052.490,522.575 L1031.675,477.113 A1125.000,1125.000 0.000 0,0 1011.580,486.555 Z" style="stroke-width:4.0;stroke:rgb(0,0,0);stroke-linecap:round;fill:rgb(251,106,74);" />
<path d="M952.970,574.590 A1075.000,1075.000 40.000 0,1 1011.148,542.582 L988.411,498.051 A1125.000,1125.000 0.000 0,0 927.527,531.548 Z" style="stroke-width:4.0;stroke:rgb(0,0,0);stroke-linecap:round;fill:rgb(116,196,118);" />
<path d="M858.100,637.684 A1075.000,1075.000 40.000 0,1 923.249,592.816 L896.423,550.621 A1125.000,1125.000 0.000 0,0 828.244,597.576 Z" style="stroke-width:4.0;stroke:rgb(0,0,0);stroke-linecap:round;fill:rgb(116,196,118);" />
<path d="M1069.770,514.847 A1075.000,1075.000 40.000 0,1 1092.517,505.222 L1073.564,458.954 A1125.000,1125.000 0.000 0,0 1049.759,469.026 Z" style="stroke-width:4.0;stroke:rgb(0,0,0);stroke-linecap:round;fill:rgb(116,196,118);" />
</g>
</g>
<g id="track_0">
<path d="M 1493.804,2564.232 A 1064.250,1064.250 0.00 0,1 1454.5,2563.3 L 1454.5,2563.3 1458.6,2489.8 1464.1,2421.2 1470.9,2357.1 1479.0,2297.2 1488.3,2241.3 1498.6,2189.2 1509.9,2140.4 1522.1,2094.9 1535.3,2052.4 1549.2,2012.6 1564.0,1975.4 1579.6,1940.5 1596.0,1907.8 1613.2,1877.1 1631.2,1848.3 1650.1,1821.2 1669.9,1795.7 1690.6,1771.6 1712.4,1748.9 1735.2,1727.4 1759.2,1707.1 1784.6,1687.9 1811.3,1669.7 1839.5,1652.6 1869.4,1636.4 1901.1,1621.1 1934.7,1606.8 1970.5,1593.4 2008.6,1580.9 2049.1,1569.5 2092.4,1559.0 2138.6,1549.6 2187.9,1541.4 2240.6,1534.3 2297.0,1528.5 2357.2,1524.2 2421.6,1521.3 2490.5,1520.1 2564.1,1520.6  A 1064.250,1064.250 0.00 0,0 2564.1,1482.7 L 2564.1,1482.7 2490.5,1484.8 2421.8,1488.5 2357.5,1493.6 2297.5,1500.1 2241.4,1507.9 2189.0,1516.8 2140.0,1526.8 2094.2,1537.9 2051.3,1549.8 2011.2,1562.7 1973.6,1576.5 1938.3,1591.2 1905.2,1606.7 1874.1,1623.1 1844.9,1640.3 1817.3,1658.5 1791.3,1677.6 1766.7,1697.7 1743.4,1718.8 1721.4,1741.1 1700.5,1764.6 1680.6,1789.4 1661.8,1815.6 1643.9,1843.4 1627.0,1872.8 1610.9,1904.1 1595.8,1937.4 1581.5,1972.8 1568.1,2010.5 1555.6,2050.8 1544.1,2093.7 1533.5,2139.7 1524.0,2188.8 1515.6,2241.3 1508.4,2297.5 1502.6,2357.6 1498.1,2421.9 1495.1,2490.7 1493.8,2564.2  Z" style="stroke-width: 2.0;  stroke: rgb(82,82,82); fill: rgb(204,204,153); opacity: 0.667;" />
<path d="M 1922.936,523.397 A 1064.250,1064.250 0.00 0,1 2053.1,590.8 L 2053.1,590.8 2014.7,653.1 1978.5,710.5 1944.4,763.1 1912.3,811.2 1882.1,855.1 1853.7,894.8 1826.9,930.7 1801.7,962.9 1777.9,991.5 1755.6,1016.8 1734.5,1038.9 1714.7,1057.9 1696.0,1073.9 1678.4,1087.0 1661.7,1097.3 1646.0,1104.8 1631.1,1109.6 1617.0,1111.8 1603.7,1111.3 1591.0,1108.1 1579.0,1102.3 1567.6,1093.8 1556.7,1082.6 1546.4,1068.5 1536.5,1051.6 1527.1,1031.8 1518.1,1008.9 1509.5,982.8 1501.2,953.4 1493.4,920.6 1485.9,884.1 1478.8,843.8 1472.0,799.6 1465.5,751.1 1459.4,698.3 1453.7,640.7 1448.3,578.3 1443.3,510.6 1438.7,437.5  A 1064.250,1064.250 0.00 0,0 1293.7,455.9 L 1293.7,455.9 1308.3,527.7 1322.5,594.1 1336.4,655.2 1349.9,711.4 1363.2,762.9 1376.3,810.0 1389.0,852.9 1401.6,891.8 1414.0,926.9 1426.3,958.4 1438.5,986.4 1450.6,1011.0 1462.6,1032.5 1474.7,1050.8 1486.8,1066.2 1498.9,1078.7 1511.2,1088.4 1523.7,1095.2 1536.4,1099.3 1549.4,1100.7 1562.6,1099.4 1576.3,1095.3 1590.3,1088.5 1604.9,1078.9 1620.0,1066.4 1635.6,1051.0 1652.0,1032.6 1669.0,1011.1 1686.8,986.3 1705.5,958.2 1725.1,926.5 1745.6,891.2 1767.2,852.0 1789.9,808.7 1813.8,761.1 1839.0,709.1 1865.5,652.3 1893.5,590.5 1922.9,523.4  Z" style="stroke-width: 2.0;  stroke: rgb(82,82,82); fill: rgb(255,204,0); opacity: 0.667;" />
<path d="M 2105.102,624.512 A 1064.250,1064.250 0.00 0,1 2273.1,768.6 L 2273.1,768.6 2219.1,818.6 2167.4,864.0 2117.9,905.2 2070.4,942.5 2025.0,976.1 1981.3,1006.4 1939.4,1033.4 1899.0,1057.5 1860.1,1078.9 1822.5,1097.6 1786.2,1114.0 1750.9,1128.0 1716.5,1139.9 1683.0,1149.9 1650.2,1157.8 1618.0,1164.0 1586.3,1168.3 1554.9,1170.9 1523.7,1171.9 1492.6,1171.1 1461.5,1168.6 1430.3,1164.4 1398.8,1158.5 1367.0,1150.8 1334.6,1141.2 1301.6,1129.6 1267.9,1116.0 1233.4,1100.2 1197.8,1082.1 1161.2,1061.5 1123.5,1038.2 1084.3,1012.2 1043.8,983.1 1001.7,950.7 958.0,914.8 912.5,875.2 865.1,831.6 815.7,783.7 764.2,731.1  A 1064.250,1064.250 0.00 0,0 611.6,914.1 L 611.6,914.1 673.5,953.8 732.3,989.6 788.3,1021.6 841.5,1050.1 892.2,1075.3 940.6,1097.5 986.7,1116.9 1030.7,1133.6 1072.9,1147.9 1113.3,1159.8 1152.1,1169.7 1189.5,1177.4 1225.5,1183.3 1260.5,1187.3 1294.4,1189.6 1327.4,1190.1 1359.6,1189.1 1391.3,1186.3 1422.4,1182.0 1453.1,1176.0 1483.6,1168.4 1514.0,1159.1 1544.3,1148.1 1574.7,1135.2 1605.3,1120.5 1636.2,1103.7 1667.5,1084.8 1699.3,1063.6 1731.6,1040.0 1764.6,1013.8 1798.4,984.8 1833.0,952.8 1868.5,917.6 1905.0,878.9 1942.6,836.6 1981.4,790.3 2021.3,739.7 2062.5,684.5 2105.1,624.5  Z" style="stroke-width: 2.0;  stroke: rgb(82,82,82); fill: rgb(255,204,0); opacity: 0.667;" />
<path d="M 747.809,2252.885 A 1064.250,1064.250 0.00 0,1 447.1,1654.7 L 447.1,1654.7 520.9,1645.1 591.9,1638.0 660.3,1633.2 726.1,1630.3 789.4,1628.9 850.4,1628.6 909.3,1629.3 966.1,1630.5 1020.9,1632.1 1074.0,1633.9 1125.5,1635.5 1175.4,1636.8 1224.0,1637.5 1271.4,1637.7 1317.7,1637.0 1363.1,1635.3 1407.8,1632.7 1451.9,1628.9 1495.5,1624.0 1538.9,1617.8 1582.2,1610.4 1625.6,1601.7 1669.2,1591.8 1713.3,1580.6 1758.0,1568.4 1803.4,1555.0 1849.9,1540.7 1897.5,1525.6 1946.4,1509.7 1996.9,1493.2 2049.1,1476.3 2103.3,1459.3 2159.7,1442.2 2218.3,1425.4 2279.6,1409.1 2343.6,1393.6 2410.5,1379.1 2480.7,1366.0 2554.3,1354.7  A 1064.250,1064.250 0.00 0,0 2273.2,768.7 L 2273.2,768.7 2219.9,820.7 2170.5,872.1 2124.4,922.8 2081.5,972.6 2041.2,1021.5 2003.3,1069.2 1967.5,1115.8 1933.5,1161.2 1900.9,1205.3 1869.5,1248.1 1839.1,1289.5 1809.4,1329.6 1780.1,1368.3 1751.1,1405.7 1722.1,1441.8 1692.9,1476.6 1663.5,1510.3 1633.5,1542.8 1602.8,1574.3 1571.4,1604.8 1539.1,1634.6 1505.8,1663.7 1471.3,1692.2 1435.7,1720.4 1398.9,1748.4 1360.7,1776.4 1321.2,1804.6 1280.3,1833.2 1238.1,1862.5 1194.4,1892.7 1149.5,1924.1 1103.2,1956.8 1055.6,1991.4 1006.8,2027.9 956.9,2066.8 906.0,2108.4 854.0,2153.1 801.3,2201.1 747.8,2252.9  Z" style="stroke-width: 2.0;  stroke: rgb(82,82,82); fill: rgb(255,204,204); opacity: 0.667;" />
<path d="M 2540.434,1723.888 A 1064.250,1064.250 0.00 0,1 2494.7,1878.4 L 2494.7,1878.4 2425.7,1853.0 2360.6,1830.9 2299.3,1811.8 2241.6,1795.4 2187.1,1781.7 2135.7,1770.4 2087.3,1761.4 2041.4,1754.6 1998.1,1749.8 1957.1,1746.9 1918.2,1745.8 1881.3,1746.4 1846.2,1748.7 1812.7,1752.6 1780.7,1758.1 1750.0,1765.1 1720.6,1773.7 1692.3,1783.8 1665.0,1795.5 1638.5,1808.8 1612.8,1823.7 1587.8,1840.4 1563.3,1858.9 1539.4,1879.3 1515.9,1901.7 1492.8,1926.2 1469.9,1953.0 1447.4,1982.2 1425.0,2014.1 1402.9,2048.7 1380.9,2086.3 1359.0,2127.2 1337.2,2171.4 1315.6,2219.4 1294.1,2271.2 1272.7,2327.3 1251.4,2387.9 1230.3,2453.3 1209.5,2523.8  A 1064.250,1064.250 0.00 0,0 1366.3,2555.8 L 1366.3,2555.8 1376.4,2483.0 1387.4,2415.2 1399.3,2352.1 1412.1,2293.4 1425.6,2238.9 1439.8,2188.2 1454.7,2141.2 1470.2,2097.6 1486.3,2057.1 1503.0,2019.5 1520.3,1984.6 1538.3,1952.3 1556.8,1922.4 1576.0,1894.7 1595.9,1869.0 1616.5,1845.2 1637.9,1823.3 1660.2,1803.0 1683.3,1784.4 1707.5,1767.2 1732.8,1751.5 1759.3,1737.3 1787.1,1724.4 1816.3,1712.8 1847.1,1702.5 1879.7,1693.6 1914.1,1686.1 1950.5,1679.9 1989.1,1675.1 2030.1,1671.7 2073.7,1670.0 2120.0,1669.8 2169.3,1671.4 2221.8,1674.7 2277.7,1680.1 2337.2,1687.5 2400.7,1697.2 2468.4,1709.2 2540.4,1723.9  Z" style="stroke-width: 2.0;  stroke: rgb(82,82,82); fill: rgb(0,0,204); opacity: 0.667;" />
<path d="M 1684.144,2548.198 A 1064.250,1064.250 0.00 0,1 1494.0,2564.2 L 1494.0,2564.2 1495.2,2490.7 1497.9,2422.2 1502.0,2358.4 1507.3,2298.9 1513.8,2243.6 1521.5,2192.1 1530.2,2144.2 1539.9,2099.7 1550.6,2058.4 1562.2,2020.0 1574.8,1984.3 1588.2,1951.2 1602.6,1920.5 1617.9,1892.1 1634.1,1865.7 1651.3,1841.3 1669.5,1818.8 1688.8,1797.9 1709.2,1778.8 1730.8,1761.2 1753.7,1745.0 1778.0,1730.4 1803.8,1717.1 1831.1,1705.2 1860.2,1694.6 1891.2,1685.4 1924.1,1677.5 1959.3,1671.0 1996.7,1665.9 2036.7,1662.2 2079.3,1660.1 2124.9,1659.6 2173.5,1660.7 2225.5,1663.6 2281.0,1668.4 2340.3,1675.2 2403.7,1684.1 2471.3,1695.3 2543.5,1708.9  A 1064.250,1064.250 0.00 0,0 2564.0,1520.8 L 2564.0,1520.8 2490.6,1520.2 2422.0,1521.1 2358.1,1523.6 2298.5,1527.4 2243.0,1532.5 2191.4,1538.9 2143.3,1546.4 2098.6,1555.0 2057.0,1564.6 2018.3,1575.3 1982.4,1586.9 1949.0,1599.5 1917.9,1613.1 1889.1,1627.6 1862.4,1643.2 1837.6,1659.8 1814.6,1677.4 1793.3,1696.1 1773.7,1716.1 1755.6,1737.2 1738.9,1759.7 1723.6,1783.6 1709.8,1809.0 1697.2,1836.1 1685.9,1864.9 1676.0,1895.6 1667.3,1928.3 1660.0,1963.3 1654.0,2000.6 1649.4,2040.4 1646.3,2083.0 1644.7,2128.5 1644.7,2177.2 1646.3,2229.2 1649.8,2284.8 1655.2,2344.2 1662.6,2407.8 1672.2,2475.7 1684.1,2548.2  Z" style="stroke-width: 2.0;  stroke: rgb(82,82,82); fill: rgb(251,106,74); opacity: 0.667;" />
<path d="M 2554.774,1358.293 A 1064.250,1064.250 0.00 0,1 2563.4,1458.4 L 2563.4,1458.4 2489.3,1460.1 2418.7,1459.5 2351.4,1456.9 2287.2,1452.6 2225.9,1446.8 2167.2,1439.9 2111.0,1432.0 2057.1,1423.3 2005.2,1414.1 1955.2,1404.5 1906.8,1394.6 1859.8,1384.7 1814.1,1374.8 1769.4,1365.0 1725.7,1355.4 1682.6,1346.1 1640.1,1337.1 1598.0,1328.4 1556.0,1320.1 1514.0,1312.1 1471.9,1304.4 1429.5,1297.0 1386.7,1289.7 1343.2,1282.6 1299.0,1275.4 1253.9,1268.1 1207.8,1260.5 1160.4,1252.5 1111.8,1243.9 1061.7,1234.4 1010.0,1224.0 956.7,1212.2 901.5,1198.9 844.4,1183.8 785.3,1166.7 724.0,1147.1 660.5,1124.8 594.6,1099.4 526.3,1070.5  A 1064.250,1064.250 0.00 0,0 488.5,1169.0 L 488.5,1169.0 559.4,1190.9 627.5,1209.7 692.9,1225.6 755.9,1239.0 816.4,1250.3 874.8,1259.6 931.0,1267.4 985.3,1273.9 1037.7,1279.2 1088.5,1283.7 1137.8,1287.5 1185.7,1290.8 1232.4,1293.8 1278.1,1296.7 1322.8,1299.5 1366.8,1302.4 1410.1,1305.4 1453.1,1308.7 1495.7,1312.3 1538.3,1316.2 1580.9,1320.4 1623.7,1325.0 1666.9,1329.9 1710.7,1335.0 1755.2,1340.4 1800.6,1345.9 1847.1,1351.4 1894.8,1356.8 1943.9,1362.1 1994.7,1366.9 2047.3,1371.2 2101.8,1374.7 2158.5,1377.3 2217.6,1378.7 2279.2,1378.6 2343.5,1376.8 2410.7,1373.1 2481.1,1367.0 2554.8,1358.3  Z" style="stroke-width: 2.0;  stroke: rgb(82,82,82); fill: rgb(253,141,60); opacity: 0.667;" />
<path d="M 1500.550,435.750 A 1064.250,1064.250 0.00 0,1 1525.4,436.1 L 1525.4,436.1 1524.0,509.3 1523.4,577.1 1523.6,639.8 1524.5,697.5 1526.2,750.7 1528.5,799.4 1531.5,844.0 1535.1,884.6 1539.4,921.4 1544.3,954.7 1549.8,984.5 1556.0,1011.0 1562.8,1034.4 1570.2,1054.7 1578.3,1072.2 1587.1,1086.7 1596.6,1098.5 1606.8,1107.7 1617.9,1114.1 1629.7,1117.9 1642.4,1119.1 1656.1,1117.7 1670.7,1113.7 1686.3,1107.0 1703.1,1097.6 1721.0,1085.4 1740.2,1070.4 1760.7,1052.5 1782.6,1031.5 1806.0,1007.4 1830.9,980.0 1857.6,949.1 1886.1,914.7 1916.4,876.5 1948.8,834.3 1983.3,788.0 2020.1,737.2 2059.2,681.9 2100.9,621.6  A 1064.250,1064.250 0.00 0,0 2080.2,607.8 L 2080.2,607.8 2040.0,669.0 2002.1,725.3 1966.6,776.9 1933.2,824.0 1901.8,866.9 1872.3,905.8 1844.7,940.9 1818.7,972.4 1794.4,1000.4 1771.6,1025.0 1750.2,1046.5 1730.1,1064.9 1711.3,1080.4 1693.7,1092.9 1677.1,1102.7 1661.6,1109.8 1647.1,1114.2 1633.5,1115.9 1620.8,1115.0 1608.8,1111.5 1597.7,1105.3 1587.2,1096.4 1577.4,1084.8 1568.3,1070.4 1559.8,1053.2 1551.9,1033.0 1544.6,1009.8 1537.8,983.5 1531.6,953.8 1525.9,920.7 1520.8,883.9 1516.2,843.4 1512.2,798.9 1508.7,750.3 1505.8,697.2 1503.5,639.4 1501.9,576.8 1500.9,509.0 1500.5,435.8  Z" style="stroke-width: 2.0;  stroke: rgb(82,82,82); fill: rgb(204,51,255); opacity: 0.667;" />
<path d="M 1761.498,468.377 A 1064.250,1064.250 0.00 0,1 1919.8,522.1 L 1919.8,522.1 1891.7,590.6 1867.0,656.4 1845.5,719.6 1826.7,780.4 1810.5,838.9 1796.5,895.2 1784.4,949.5 1774.0,1001.9 1765.0,1052.6 1757.2,1101.7 1750.5,1149.3 1744.7,1195.7 1739.5,1240.8 1734.9,1285.0 1730.7,1328.3 1726.9,1371.0 1723.3,1413.0 1719.8,1454.7 1716.5,1496.2 1713.2,1537.6 1710.0,1579.0 1706.9,1620.8 1704.0,1662.9 1701.1,1705.6 1698.5,1749.0 1696.1,1793.4 1694.2,1838.8 1692.7,1885.5 1691.9,1933.6 1691.9,1983.3 1692.8,2034.7 1694.9,2088.1 1698.4,2143.7 1703.5,2201.5 1710.4,2261.8 1719.4,2324.8 1730.8,2390.6 1744.9,2459.4 1762.0,2531.5  A 1064.250,1064.250 0.00 0,0 1933.5,2472.0 L 1933.5,2472.0 1904.4,2403.9 1878.8,2338.4 1856.4,2275.6 1836.8,2215.1 1819.8,2156.9 1805.0,2100.8 1792.2,2046.8 1781.1,1994.6 1771.5,1944.1 1763.1,1895.2 1755.8,1847.8 1749.4,1801.6 1743.8,1756.6 1738.7,1712.5 1734.1,1669.4 1729.8,1626.9 1725.8,1584.9 1722.0,1543.4 1718.4,1502.0 1714.8,1460.8 1711.4,1419.4 1708.0,1377.8 1704.8,1335.8 1701.8,1293.2 1699.0,1249.9 1696.5,1205.6 1694.4,1160.3 1692.8,1113.7 1691.9,1065.7 1691.8,1016.1 1692.7,964.8 1694.7,911.4 1698.1,856.0 1703.1,798.2 1710.0,738.0 1719.0,675.1 1730.4,609.3 1744.4,540.4 1761.5,468.4  Z" style="stroke-width: 2.0;  stroke: rgb(82,82,82); fill: rgb(204,51,255); opacity: 0.667;" />
<path d="M 2055.575,592.275 A 1064.250,1064.250 0.00 0,1 2073.1,603.2 L 2073.1,603.2 2033.4,664.8 1996.1,721.4 1961.1,773.3 1928.3,820.8 1897.6,864.0 1868.8,903.2 1841.8,938.6 1816.6,970.3 1793.0,998.6 1771.0,1023.5 1750.4,1045.2 1731.2,1063.9 1713.3,1079.6 1696.6,1092.4 1681.0,1102.4 1666.6,1109.6 1653.1,1114.2 1640.7,1116.0 1629.1,1115.3 1618.4,1111.9 1608.6,1105.8 1599.5,1097.0 1591.3,1085.5 1583.7,1071.2 1576.9,1054.0 1570.7,1033.9 1565.2,1010.7 1560.4,984.4 1556.3,954.8 1552.9,921.7 1550.1,885.0 1548.0,844.5 1546.6,800.0 1546.0,751.4 1546.1,698.3 1546.9,640.6 1548.6,578.0 1551.2,510.3 1554.6,437.2  A 1064.250,1064.250 0.00 0,0 1533.5,436.3 L 1533.5,436.3 1531.5,509.5 1530.3,577.3 1529.9,639.9 1530.2,697.6 1531.1,750.6 1532.7,799.2 1535.0,843.7 1537.9,884.1 1541.4,920.7 1545.5,953.7 1550.2,983.3 1555.5,1009.5 1561.5,1032.6 1568.0,1052.6 1575.2,1069.6 1583.1,1083.8 1591.6,1095.1 1600.8,1103.7 1610.8,1109.6 1621.5,1112.8 1633.1,1113.4 1645.6,1111.3 1658.9,1106.4 1673.2,1098.9 1688.6,1088.6 1705.0,1075.5 1722.6,1059.5 1741.5,1040.5 1761.6,1018.3 1783.2,993.0 1806.2,964.3 1830.8,932.0 1857.1,896.1 1885.1,856.4 1915.0,812.6 1946.9,764.5 1980.9,711.9 2017.1,654.6 2055.6,592.3  Z" style="stroke-width: 2.0;  stroke: rgb(82,82,82); fill: rgb(153,153,153); opacity: 0.667;" />
</g>
<defs>
<pattern id="checker" width="10" height="10" patternTransform="rotate(45 0 0)" patternUnits="userSpaceOnUse"><line x1="0" y1="0" x2="10" y2="0" style="stroke:black;stroke-width:5" /><line x1="0" y1="0" x2="0" y2="10" style="stroke:black;stroke-width:4" /></pattern>
<pattern id="hline" width="10" height="10" patternTransform="rotate(0 0 0)" patternUnits="userSpaceOnUse"><line x1="0" y1="0" x2="10" y2="0" style="stroke:black;stroke-width:5" /></pattern>
<pattern id="vline" width="10" height="10" patternTransform="rotate(0 0 0)" patternUnits="userSpaceOnUse"><line x1="0" y1="0" x2="0" y2="10" style="stroke:black;stroke-width:5" /></pattern>
<pattern id="checker" width="10" height="10" patternTransform="rotate(45 0 0)" patternUnits="userSpaceOnUse"><line x1="0" y1="0" x2="10" y2="0" style="stroke:black;stroke-width:2" /><line x1="0" y1="0" x2="0" y2="10" style="stroke:black;stroke-width:2" /></pattern>
<pattern id="vline-sparse" width="10" height="10" patternTransform="rotate(0 0 0)" patternUnits="userSpaceOnUse"><line x1="0" y1="0" x2="0" y2="10" style="stroke:black;stroke-width:2" /></pattern>
<pattern id="hline-sparse" width="10" height="10" patternTransform="rotate(0 0 0)" patternUnits="userSpaceOnUse"><line x1="0" y1="0" x2="10" y2="0" style="stroke:black;stroke-width:2" /></pattern>
</defs>
</svg>
